<?xml version="1.0" encoding="UTF-8"?>
<!-- Generator: Adobe Illustrator 15.0.2, SVG Export Plug-In  -->
<!DOCTYPE svg PUBLIC "-//W3C//DTD SVG 1.1//EN" "http://www.w3.org/Graphics/SVG/1.1/DTD/svg11.dtd" [
	<!ENTITY ns_flows "http://ns.adobe.com/Flows/1.0/">
]>
<svg version="1.1" xmlns="http://www.w3.org/2000/svg" xmlns:xlink="http://www.w3.org/1999/xlink" xmlns:a="http://ns.adobe.com/AdobeSVGViewerExtensions/3.0/" x="0px" y="0px" width="255px" height="128px" viewBox="174.915 112 255 128" overflow="visible" enable-background="new 174.915 112 255 128" xml:space="preserve">
<defs>
</defs>
<g display="none">
	<rect x="0.5" y="23.5" display="inline" fill-rule="evenodd" clip-rule="evenodd" fill="#FFFFFF" width="979.001" height="670"/>
	<path display="inline" fill="#D4D4D4" d="M979.001,24v669H1V24H979.001 M980.001,23H0v671h980.001V23L980.001,23z"/>
</g>
<path display="none" fill="none" stroke="#FFD24D" stroke-width="10" stroke-linecap="round" stroke-linejoin="round" stroke-miterlimit="10" d="  M300,702c0,0,0-190.5,0-210s20-20,20-20h402c20,0,20-20.043,20-20.043V265c0-19.5-20-20-20-20H80c-20.136,0-20-20-20-20V15"/>
<g display="none">
	<g display="inline">
		<path fill="none" stroke="#F5C336" stroke-width="10" stroke-linecap="round" stroke-linejoin="round" d="M300,702    c0,0,0-8.669,0-22.498"/>
		
			<path fill="none" stroke="#F5C336" stroke-width="10" stroke-linecap="round" stroke-linejoin="round" stroke-dasharray="44.4253,44.4253" d="    M300,635.061c0-56.919,0-131.267,0-143.061c0-19.5,20-20,20-20h402c20,0,20-20.043,20-20.043V265c0-19.5-20-20-20-20H80    c-20.136,0-20-20-20-20V59.698"/>
		
			<line fill="none" stroke="#F5C336" stroke-width="10" stroke-linecap="round" stroke-linejoin="round" x1="60" y1="37.5" x2="60" y2="15"/>
	</g>
</g>
<path display="none" fill="none" stroke="#04A95F" stroke-width="10" stroke-linecap="round" stroke-linejoin="round" stroke-miterlimit="10" d="  M60,15v210c0,0-0.136,20,20,20h642c0,0,20,0.5,20,20v34.186"/>
<g display="none">
	<g display="inline">
		
			<line fill="none" stroke="#03914A" stroke-width="10" stroke-linecap="round" stroke-linejoin="round" x1="60" y1="15" x2="60" y2="37.5"/>
		
			<path fill="none" stroke="#03914A" stroke-width="10" stroke-linecap="round" stroke-linejoin="round" stroke-dasharray="43.0716,43.0716" d="    M60,80.571V225c0,0-0.136,20,20,20h642c0,0,12.819,0.32,17.932,10.454"/>
		
			<line fill="none" stroke="#03914A" stroke-width="10" stroke-linecap="round" stroke-linejoin="round" x1="742" y1="276.686" x2="742" y2="299.186"/>
	</g>
</g>
<path display="none" fill="none" stroke="#E04A3F" stroke-width="10" stroke-linecap="round" stroke-linejoin="round" stroke-miterlimit="10" d="  M60,15v210c0,0-0.136,20,20,20h223"/>
<g display="none">
	<g display="inline">
		
			<line fill="none" stroke="#CD372C" stroke-width="10" stroke-linecap="round" stroke-linejoin="round" x1="60" y1="15" x2="60" y2="37.5"/>
		
			<path fill="none" stroke="#CD372C" stroke-width="10" stroke-linecap="round" stroke-linejoin="round" stroke-dasharray="46.6395,46.6395" d="    M60,84.14V225c0,0-0.136,20,20,20h177.181"/>
		
			<line fill="none" stroke="#CD372C" stroke-width="10" stroke-linecap="round" stroke-linejoin="round" x1="280.5" y1="245" x2="303" y2="245"/>
	</g>
</g>
<g>
	<defs>
		<rect id="SVGID_1_" x="147.5" width="308.5" height="240"/>
	</defs>
	<clipPath id="SVGID_2_">
		<use xlink:href="#SVGID_1_" overflow="visible"/>
	</clipPath>
	<g clip-path="url(#SVGID_2_)">
		<circle fill="#999999" cx="302.75" cy="240.043" r="127.5"/>
		<path fill="#A6A6A6" d="M302.75,358.937c-65.558,0-118.894-53.336-118.894-118.894s53.336-118.894,118.894-118.894    s118.894,53.336,118.894,118.894S368.308,358.937,302.75,358.937z"/>
		<path fill="#E0E0E0" d="M302.75,354.793c-63.273,0-114.75-51.477-114.75-114.75s51.477-114.75,114.75-114.75    S417.5,176.77,417.5,240.043S366.023,354.793,302.75,354.793z"/>
		
			<line fill="none" stroke="#999999" stroke-width="6.375" stroke-linecap="round" stroke-miterlimit="10" x1="265.94" y1="189.378" x2="242.131" y2="156.607"/>
		
			<line fill="none" stroke="#999999" stroke-width="6.375" stroke-linecap="round" stroke-miterlimit="10" x1="243.191" y1="220.69" x2="204.667" y2="208.174"/>
		
			<line fill="none" stroke="#999999" stroke-width="6.375" stroke-linecap="round" stroke-miterlimit="10" x1="243.191" y1="259.395" x2="204.668" y2="271.913"/>
		
			<line fill="none" stroke="#999999" stroke-width="6.375" stroke-linecap="round" stroke-miterlimit="10" x1="265.941" y1="290.708" x2="242.134" y2="323.477"/>
		
			<line fill="none" stroke="#999999" stroke-width="6.375" stroke-linecap="round" stroke-miterlimit="10" x1="302.752" y1="302.669" x2="302.752" y2="343.172"/>
		
			<line fill="none" stroke="#999999" stroke-width="6.375" stroke-linecap="round" stroke-miterlimit="10" x1="339.563" y1="290.707" x2="363.371" y2="323.475"/>
		
			<line fill="none" stroke="#999999" stroke-width="6.375" stroke-linecap="round" stroke-miterlimit="10" x1="362.312" y1="259.394" x2="400.836" y2="271.909"/>
		
			<line fill="none" stroke="#999999" stroke-width="6.375" stroke-linecap="round" stroke-miterlimit="10" x1="362.312" y1="220.688" x2="400.836" y2="208.171"/>
		
			<line fill="none" stroke="#999999" stroke-width="6.375" stroke-linecap="round" stroke-miterlimit="10" x1="339.561" y1="189.375" x2="363.37" y2="156.605"/>
		
			<line fill="none" stroke="#999999" stroke-width="6.375" stroke-linecap="round" stroke-miterlimit="10" x1="302.688" y1="176.86" x2="302.812" y2="136.354"/>
		
			<line fill="none" stroke="#C2C2C2" stroke-width="6.375" stroke-linecap="round" stroke-miterlimit="10" x1="277.395" y1="162.005" x2="270.88" y2="141.959"/>
		
			<line fill="none" stroke="#C2C2C2" stroke-width="6.375" stroke-linecap="round" stroke-miterlimit="10" x1="236.368" y1="191.813" x2="219.314" y2="179.423"/>
		
			<line fill="none" stroke="#C2C2C2" stroke-width="6.375" stroke-linecap="round" stroke-miterlimit="10" x1="220.699" y1="240.042" x2="199.619" y2="240.043"/>
		
			<line fill="none" stroke="#C2C2C2" stroke-width="6.375" stroke-linecap="round" stroke-miterlimit="10" x1="236.369" y1="288.271" x2="219.317" y2="300.661"/>
		
			<line fill="none" stroke="#C2C2C2" stroke-width="6.375" stroke-linecap="round" stroke-miterlimit="10" x1="277.395" y1="318.078" x2="270.883" y2="338.125"/>
		
			<line fill="none" stroke="#C2C2C2" stroke-width="6.375" stroke-linecap="round" stroke-miterlimit="10" x1="328.106" y1="318.078" x2="334.621" y2="338.125"/>
		
			<line fill="none" stroke="#C2C2C2" stroke-width="6.375" stroke-linecap="round" stroke-miterlimit="10" x1="369.133" y1="288.271" x2="386.186" y2="300.658"/>
		
			<line fill="none" stroke="#C2C2C2" stroke-width="6.375" stroke-linecap="round" stroke-miterlimit="10" x1="384.805" y1="240.042" x2="405.882" y2="240.039"/>
		
			<line fill="none" stroke="#C2C2C2" stroke-width="6.375" stroke-linecap="round" stroke-miterlimit="10" x1="369.133" y1="191.811" x2="386.186" y2="179.421"/>
		
			<line fill="none" stroke="#C2C2C2" stroke-width="6.375" stroke-linecap="round" stroke-miterlimit="10" x1="328.105" y1="162.002" x2="334.619" y2="141.956"/>
		<path fill="none" stroke="#00AEEF" stroke-width="6.375" stroke-linecap="round" stroke-miterlimit="10" d="M270.88,141.959"/>
		<g>
			<path fill="#999999" d="M250.229,206.043h-2.995v-5.782c0-0.702,0.015-1.345,0.045-1.928c-0.185,0.225-0.414,0.458-0.688,0.702     l-1.24,1.023l-1.531-1.882l3.75-3.056h2.659V206.043z"/>
		</g>
		<g>
			<path fill="#999999" d="M285.149,181.549h-7.926v-1.942l2.667-2.697c0.762-0.797,1.26-1.341,1.494-1.632     c0.233-0.292,0.396-0.542,0.489-0.751c0.092-0.209,0.138-0.429,0.138-0.657c0-0.284-0.092-0.508-0.276-0.673     c-0.184-0.164-0.443-0.246-0.776-0.246c-0.344,0-0.691,0.099-1.043,0.295c-0.351,0.197-0.748,0.487-1.191,0.87l-1.621-1.897     c0.563-0.503,1.036-0.862,1.42-1.079c0.383-0.217,0.8-0.383,1.251-0.497s0.958-0.172,1.521-0.172     c0.707,0,1.338,0.125,1.894,0.374s0.986,0.604,1.293,1.064c0.306,0.46,0.459,0.978,0.459,1.55c0,0.429-0.054,0.824-0.16,1.188     c-0.107,0.364-0.273,0.722-0.497,1.072c-0.225,0.352-0.521,0.721-0.893,1.109s-1.162,1.126-2.372,2.212v0.074h4.131V181.549z"/>
		</g>
		<g>
			<path fill="#999999" d="M327.307,172.995c0,0.677-0.206,1.259-0.619,1.744c-0.414,0.485-1.012,0.838-1.793,1.058v0.044     c1.822,0.229,2.733,1.091,2.733,2.585c0,1.017-0.402,1.815-1.206,2.398c-0.805,0.583-1.921,0.874-3.351,0.874     c-0.588,0-1.132-0.042-1.633-0.127c-0.5-0.085-1.042-0.239-1.624-0.463v-2.451c0.478,0.244,0.965,0.425,1.46,0.542     s0.952,0.176,1.371,0.176c0.647,0,1.119-0.091,1.416-0.272c0.296-0.182,0.444-0.468,0.444-0.855c0-0.299-0.077-0.529-0.231-0.691     c-0.155-0.162-0.404-0.284-0.747-0.366c-0.344-0.082-0.792-0.123-1.345-0.123h-0.673v-2.219h0.688     c1.499,0,2.248-0.384,2.248-1.15c0-0.289-0.11-0.503-0.332-0.643s-0.52-0.209-0.893-0.209c-0.697,0-1.42,0.234-2.167,0.702     l-1.225-1.973c0.577-0.398,1.169-0.682,1.774-0.852c0.604-0.169,1.298-0.254,2.08-0.254c1.131,0,2.018,0.225,2.66,0.673     S327.307,172.208,327.307,172.995z"/>
		</g>
		<g>
			<path fill="#999999" d="M360.302,203.929h-1.203v2.114h-2.913v-2.114h-4.355v-2.166l4.542-6.642h2.727v6.604h1.203V203.929z      M356.186,201.725v-1.27c0-0.239,0.009-0.562,0.025-0.968c0.018-0.405,0.031-0.619,0.042-0.639h-0.083     c-0.169,0.384-0.36,0.742-0.575,1.076l-1.21,1.8H356.186z"/>
		</g>
		<path display="none" opacity="0.2" d="M356.864,256.094c-2.591-18.52-43.701-101.915-47.905-110.674    c-2.637-5.498-4.938-10.964-6.209-11.266l3.216,90.727c-9.39,0-16.999,7.611-16.999,17c0,9.388,7.609,17,16.999,17    s29.312,18.393,39.423,16.333C361.008,272.031,357.27,257.551,356.864,256.094z"/>
	</g>
</g>
<path display="none" fill="#E04B3F" d="M319.75,240.043c0,0-12.761-91.196-13.547-96.461c-1.918-12.826-5.544-12.382-7.172,0  c-1.031,7.837-13.281,96.461-13.281,96.461l17,10.259L319.75,240.043z"/>
<path display="none" fill="#CE382D" d="M306.203,143.582c-0.902-6.031-2.182-9.126-3.453-9.428v116.147l17-10.259  C319.75,240.043,306.989,148.847,306.203,143.582z"/>
<circle display="none" fill="#CE382D" cx="302.75" cy="240.043" r="17"/>
</svg>